<?xml version="1.0" encoding="UTF-8" standalone="no"?>
<svg
   xmlns:dc="http://purl.org/dc/elements/1.1/"
   xmlns:cc="http://creativecommons.org/ns#"
   xmlns:rdf="http://www.w3.org/1999/02/22-rdf-syntax-ns#"
   xmlns:svg="http://www.w3.org/2000/svg"
   xmlns="http://www.w3.org/2000/svg"
   xmlns:sodipodi="http://sodipodi.sourceforge.net/DTD/sodipodi-0.dtd"
   xmlns:inkscape="http://www.inkscape.org/namespaces/inkscape"
   width="512.34076"
   height="174.9809"
   id="svg3170"
   version="1.1"
   inkscape:version="0.48.5 r10040"
   sodipodi:docname="New document 2">
  <defs
     id="defs3172">
    <filter
       inkscape:menu-tooltip="Make the lightest parts of the object progressively transparent"
       inkscape:menu="Transparency utilities"
       inkscape:label="Light eraser"
       height="1"
       width="1"
       y="0"
       x="0"
       color-interpolation-filters="sRGB"
       id="filter3243">
      <feColorMatrix
         result="result14"
         type="luminanceToAlpha"
         in="SourceGraphic"
         id="feColorMatrix3245" />
      <feComposite
         in="SourceGraphic"
         in2="result14"
         result="fbSourceGraphic"
         operator="out"
         id="feComposite3247" />
      <feBlend
         mode="normal"
         in2="fbSourceGraphic"
         result="result15"
         id="feBlend3249" />
    </filter>
  </defs>
  <sodipodi:namedview
     id="base"
     pagecolor="#ffffff"
     bordercolor="#666666"
     borderopacity="1.0"
     inkscape:pageopacity="0.0"
     inkscape:pageshadow="2"
     inkscape:zoom="0.35"
     inkscape:cx="256.17039"
     inkscape:cy="87.490442"
     inkscape:document-units="px"
     inkscape:current-layer="layer1"
     showgrid="false"
     fit-margin-top="0"
     fit-margin-left="0"
     fit-margin-right="0"
     fit-margin-bottom="0"
     inkscape:window-width="1360"
     inkscape:window-height="723"
     inkscape:window-x="0"
     inkscape:window-y="21"
     inkscape:window-maximized="1" />
  <metadata
     id="metadata3175">
    <rdf:RDF>
      <cc:Work
         rdf:about="">
        <dc:format>image/svg+xml</dc:format>
        <dc:type
           rdf:resource="http://purl.org/dc/dcmitype/StillImage" />
        <dc:title></dc:title>
      </cc:Work>
    </rdf:RDF>
  </metadata>
  <g
     inkscape:label="Layer 1"
     inkscape:groupmode="layer"
     id="layer1"
     transform="translate(-118.82961,-444.87174)">
    <g
       transform="translate(-37.577613,937.96259)"
       id="g3"
       style="filter:url(#filter3243)">
      <g
         id="g5">
        <path
           style="fill:#217abf"
           inkscape:connector-curvature="0"
           d="m 229.697,-428.759 c 14.766,-2.598 17.441,-13.847 17.522,-14.176 1.391,-5.675 -22.451,-7.981 -22.703,-0.082 -0.025,0.736 -1.358,9.42 -1.358,11.883 0.001,1.356 1.381,3.284 6.539,2.375 z"
           id="path7" />
        <path
           style="fill:#217abf"
           inkscape:connector-curvature="0"
           d="m 323.305,-394.779 c -14.487,13.042 -17.299,9.479 -16.854,4.28 0.404,-4.723 8.3,-37.668 8.3,-43.598 0,-5.53 -4.085,-9.613 -10.012,-9.613 -11.063,0 -25.422,15.411 -33.588,30.688 2.502,-10.272 4.743,-18.57 4.743,-23.973 0,-4.609 -3.69,-6.32 -6.981,-6.32 -3.426,0 -8.035,1.053 -13.83,3.688 1.055,2.237 1.449,5.268 1.449,8.562 0,6.989 -1.915,19.077 -6.858,35.616 -2.663,2.072 -10.376,11.849 -14.319,10.616 -2.324,-0.727 -1.84,-3.229 -1.449,-5.666 0.604,-3.77 5.137,-25.817 7.113,-33.19 0.397,-1.436 1.629,-4.585 0.959,-4.064 -11.252,8.736 -18.613,4.224 -19.568,5.177 -1.605,1.607 -7.207,36.556 -6.945,39.455 0.528,8.166 4.744,12.117 11.725,12.117 5.553,0 13.617,-5.371 18.437,-11.967 -1.257,3.592 -2.585,7.168 -3.978,10.649 4.215,0.658 7.641,1.053 10.273,1.053 6.717,0 9.09,-2.369 10.934,-7.113 6.189,-15.41 8.166,-20.546 14.621,-30.953 6.188,-9.745 12.512,-18.043 16.2,-18.043 1.053,0 1.976,0.79 1.976,2.898 0,1.975 -1.844,11.457 -5.27,26.341 -1.315,5.929 -2.633,10.538 -2.633,15.016 0,8.297 4.875,11.889 11.854,12.117 11.234,0.369 23.406,-15.188 26.864,-24.3 0.963,-2.547 -2.286,-0.266 -3.163,0.527 z"
           id="path9" />
        <path
           style="fill:#217abf"
           inkscape:connector-curvature="0"
           d="m 193.845,-444.674 c -14.429,0 -29.497,6.815 -30.636,22.051 -0.803,10.723 7.98,15.552 15.729,19.813 6.164,3.387 11.985,6.587 11.558,12.299 -0.507,6.79 -8.254,9.256 -13.338,9.256 -6.638,0 -12.76,-2.764 -17.362,-7.813 -1.589,2.301 -3.171,4.836 -3.367,7.43 -0.144,1.938 0.425,3.57 1.744,4.988 4.848,5.225 18.151,5.631 22.113,5.631 14.969,0 30.728,-8.131 31.892,-23.667 0.838,-11.215 -8.369,-15.915 -16.49,-20.058 -6.3,-3.215 -11.738,-5.991 -11.346,-11.246 0.435,-5.838 6.172,-8.451 11.666,-8.451 6.768,0 10.537,2.857 15.047,6.586 1.74,-1.93 3.434,-4.183 3.631,-6.85 0.145,-1.908 -0.405,-3.5 -1.68,-4.873 -4.389,-4.73 -15.776,-5.096 -19.161,-5.096 z"
           id="path11" />
      </g>
      <g
         id="g13">
        <path
           style="fill:#cf124d"
           inkscape:connector-curvature="0"
           d="m 668.088,-395.898 c -1.318,0 -3.951,2.106 -8.035,6.587 -2.502,2.5 -4.346,4.345 -6.453,4.609 -1.317,0.133 -1.448,-2.898 -1.448,-5.531 0,-10.143 8.034,-42.678 12.907,-49.923 -3.819,-1.975 -7.638,-3.159 -11.723,-3.159 -3.293,0 -6.189,1.185 -8.299,3.422 -3.424,-2.632 -7.771,-3.685 -12.907,-3.685 -21.206,0 -41.097,28.976 -41.623,54.399 0,0.127 0.007,0.248 0.009,0.374 -2.623,2.192 -5.228,3.797 -6.938,3.339 -5.81,-1.551 7.539,-36.851 6.757,-48.63 -0.366,-5.518 -4.085,-9.613 -10.01,-9.613 -11.064,0 -25.423,15.411 -33.589,30.688 2.504,-10.272 4.741,-18.57 4.741,-23.973 0,-4.609 -3.688,-6.32 -6.979,-6.32 -3.426,0 -8.035,1.053 -13.832,3.688 1.055,2.237 1.451,5.268 1.451,8.562 0,7.112 -1.976,19.493 -7.113,36.483 -0.091,0.298 -0.19,0.602 -0.283,0.901 -3.286,3.104 -9.438,9.896 -12.931,8.848 -2.421,-0.727 -1.806,-3.1 -1.448,-5.666 0.525,-3.782 8.163,-38.098 8.163,-38.098 -0.22,-0.22 -4.127,4.873 -9.132,9.222 -1.655,1.436 -2.545,1.36 -3.6,-0.354 -5.687,-9.241 -5.983,-12.324 -6.214,-10.911 -0.12,0.742 -3.229,17.021 -5.024,26.313 -1.938,10.036 -2.896,18.306 -2.634,21.205 0.525,8.166 4.74,12.117 11.723,12.117 4.998,0 12.021,-4.354 16.891,-10.031 -1.054,2.938 -2.141,5.86 -3.281,8.715 4.215,0.658 7.642,1.053 10.272,1.053 6.72,0 9.089,-2.369 10.936,-7.113 6.189,-15.41 8.165,-20.546 14.62,-30.953 6.188,-9.745 12.512,-18.043 16.199,-18.043 1.055,0 1.977,0.79 1.977,2.898 0,1.975 -1.844,11.457 -5.271,26.341 -0.731,3.3 -1.457,6.183 -1.963,8.868 -0.454,2.023 -0.809,3.97 -0.973,5.65 -1.056,8.691 3.821,12.279 11.194,12.512 4.507,0.143 11.41,-4.199 17.298,-9.59 1.704,6.148 5.721,10.088 13.212,10.088 h 1.447 c 8.693,-0.395 18.31,-8.691 28.188,-24.761 -0.396,2.768 -0.658,7.507 -0.658,10.669 0,9.482 4.479,13.961 11.722,13.961 9.352,0 23.314,-14.354 23.314,-23.972 -0.001,-0.79 -0.135,-1.186 -0.66,-1.186 z m -42.15,-0.658 c -5.137,7.639 -9.086,12.118 -11.854,12.118 -2.764,0 -4.082,-2.24 -4.346,-6.85 0,-17.121 10.537,-42.412 21.074,-42.412 4.081,0 9.088,2.24 10.536,7.64 -2.897,8.033 -8.692,19.756 -15.41,29.504 z"
           id="path15" />
        <path
           style="fill:#cf124d"
           inkscape:connector-curvature="0"
           d="m 484.773,-441.256 c -2.782,0 -4.693,0.648 -6.979,1.018 l 0.012,-0.055 c -4.006,0.674 1.813,-11.018 2.239,-14.612 0.257,-2.152 -2.239,-6.455 -6.455,-6.455 -4.213,0 -8.691,1.185 -14.223,4.347 1.184,2.635 1.447,4.741 1.447,7.244 0,7.64 -3.029,21.208 -5.929,32.27 -1.734,7.2 -4.313,17.988 -5.651,23.528 -3.777,3.924 -9.394,9.292 -12.346,8.477 -2.209,-0.604 -2.813,-2.623 -2.538,-5.327 0.521,-5.201 3.021,-13.183 4.724,-18.35 0.186,-0.436 3.406,-11.792 4.883,-17.153 1.055,-3.819 1.713,-7.113 1.713,-9.877 0,-5.402 -3.821,-6.85 -8.036,-7.113 -3.292,0 -7.9,0.658 -11.326,1.843 0.658,1.316 0.924,3.03 0.924,4.478 0,7.113 -3.427,18.047 -10.143,30.296 -7.245,13.038 -15.412,22.129 -19.101,22.129 -1.977,0 -2.504,-1.715 -2.504,-3.426 0,-6.455 4.348,-21.603 8.563,-40.041 0.528,-2.372 1.318,-5.402 1.318,-8.034 0,-3.951 -1.582,-7.245 -7.642,-7.245 -3.426,0 -8.167,0.922 -12.91,2.768 1.055,1.974 1.318,4.478 1.318,6.715 0,7.221 -5.063,24.989 -7.791,38.044 -3.541,3.768 -10.625,11.242 -14.072,10.293 -6.83,-1.877 1.713,-17.252 3.951,-24.76 2.766,-8.824 8.43,-18.968 6.586,-27.923 -1.713,-7.903 -11.195,-5.531 -15.543,-4.479 -32.928,5.662 -25.42,-3.557 -25.289,-6.981 -5.532,-1.185 -16.332,15.938 -3.951,20.547 -0.526,9.616 -3.03,16.203 -9.747,24.103 3.557,1.451 7.51,0.267 10.933,-2.236 2.897,-2.241 5.928,-6.587 8.299,-10.802 2.369,-4.347 3.818,-8.429 4.742,-11.063 5.136,0 10.404,-0.79 11.591,-1.053 1.712,-0.264 1.185,1.053 0.396,3.688 -0.79,2.767 -6.717,19.889 -8.034,24.629 -1.449,4.613 -3.951,12.779 -4.479,18.177 -1.053,8.693 3.825,12.281 11.196,12.514 5.723,0.18 15.313,-6.866 21.771,-14.117 -0.025,0.425 -0.041,0.834 -0.041,1.209 0,6.719 1.715,13.568 11.461,13.568 10.67,0 20.549,-8.826 30.689,-25.422 -0.146,0.796 -0.285,1.558 -0.415,2.313 -0.569,2.118 -1.104,4.293 -1.495,6.321 -0.248,1.285 -0.439,2.51 -0.546,3.615 -1.055,8.693 3.822,12.281 11.195,12.514 1.208,0.037 2.59,-0.248 4.078,-0.787 5.174,-1.098 11.149,-5.611 15.432,-10.916 -0.708,8.179 4.084,11.593 11.254,11.818 7.846,0.25 22.964,-13.082 27.312,-21.91 2.331,-4.779 -0.541,-6.227 -2.605,-4.096 -2.721,2.808 -11.416,12.732 -15.354,11.648 -3.745,-1.029 -2.416,-6.058 -0.964,-11.749 1.02,-4.002 4.349,-16.263 6.741,-24.393 v 10e-4 c 0.505,-1.463 0.912,-3.493 2.801,-4.916 3.643,-2.742 10.51,-2.914 14.264,-1.755 0.319,-1.595 0.599,-2.351 0.78,-3.171 1.506,-6.814 1.024,-9.898 -6.504,-9.898 z"
           id="path17" />
      </g>
      <g
         id="g19">
        <g
           id="g21">
          <path
             style="fill:#3c3c3b"
             inkscape:connector-curvature="0"
             d="m 326.365,-328.62 c 1.332,0 2.442,-0.37 3.33,-0.74 0.926,-0.406 2.035,0.148 1.813,0.963 -0.259,0.813 -1.036,1.628 -2.368,1.998 -0.925,0.185 -2.072,0.37 -3.626,0.37 -6.438,-0.186 -8.03,-3.627 -8.104,-8.252 0,-3.959 1.998,-7.289 3.256,-8.807 2.553,-3.183 6.18,-4.219 8.844,-4.219 3.959,0 5.957,1.962 5.957,4.515 0,1.036 -0.518,2.479 -1.332,3.737 -0.888,1.332 -2.516,2.405 -3.812,3.034 -2.331,1.185 -4.81,1.332 -7.622,1.443 -0.037,0.147 -0.074,0.629 -0.074,1.332 10e-4,1.777 0.519,4.663 3.738,4.626 z m -3.515,-6.993 c 2.035,-0.296 4.182,-1.628 6.032,-3.367 0.851,-0.852 1.517,-2.146 1.517,-3.663 0,-1.592 -0.777,-2.331 -1.702,-2.331 -0.555,0 -1.813,0.259 -3.404,2.108 -1.147,1.369 -2.147,4.181 -2.443,7.253 z"
             id="path23" />
          <path
             style="fill:#3c3c3b"
             inkscape:connector-curvature="0"
             d="m 337.247,-339.721 c 0.259,-1.518 0.555,-3.367 0.555,-4.773 v -0.222 c -0.037,-0.852 0.481,-1.813 1.776,-1.961 0.37,-0.037 0.666,-0.074 1.036,-0.148 0.037,0 0.148,-0.037 0.185,-0.037 1.185,-0.146 2.442,0.629 2.332,1.519 -0.074,0.443 0.11,-0.333 -0.074,0.592 0.185,-0.222 0.444,-0.481 0.703,-0.703 1.479,-1.147 3.441,-1.851 5.587,-1.851 2.331,0 5.477,0.814 5.477,3.923 0,0.666 -0.111,1.479 -0.407,3.182 -0.147,0.777 -0.296,1.739 -0.443,2.591 -0.148,0.888 -0.333,1.702 -0.481,2.553 -0.296,1.592 -0.814,4.589 -0.925,6.438 -0.074,1.11 -1.369,1.925 -2.813,1.925 h -0.333 c -1.221,0.036 -2.331,-0.814 -2.072,-1.739 0.37,-1.185 0.777,-2.961 1.332,-6.513 l 0.444,-2.441 c 0.333,-1.813 0.555,-3.256 0.555,-4.329 0,-1.776 -0.555,-2.517 -2.183,-2.517 -1.406,0 -3.108,1.147 -4.182,2.479 -1.147,1.48 -1.591,4.219 -1.924,6.217 l -0.666,4.329 c -0.186,1.147 -0.26,1.961 -0.296,2.664 -0.074,1.073 -1.406,1.813 -2.813,1.813 h -0.296 c -1.259,0.037 -2.331,-0.852 -2.146,-1.702 0.37,-1.332 0.629,-2.701 0.888,-4.366 l 1.184,-6.923 z"
             id="path25" />
          <path
             style="fill:#3c3c3b"
             inkscape:connector-curvature="0"
             d="m 364.465,-347.195 c 0.185,0 0.37,-0.037 0.555,-0.037 0.481,0 0.925,0 1.295,-0.037 1.11,-0.11 1.998,0.629 1.851,1.369 -0.223,0.814 -1.295,1.332 -2.517,1.332 -0.703,-0.037 -1.295,-0.037 -1.813,-0.037 -0.037,0.186 -0.074,0.297 -0.111,0.519 -0.186,0.888 -0.407,1.998 -0.629,3.108 -0.186,0.999 -0.407,2.109 -0.592,3.108 -0.148,0.851 -0.333,1.628 -0.444,2.183 -0.407,1.924 -0.703,3.59 -0.703,4.662 0,1.369 0.592,1.925 1.406,1.925 0.222,0 0.48,-0.037 0.776,-0.111 1,-0.148 1.962,0.481 1.851,1.11 -0.222,0.925 -1.184,1.739 -2.517,1.924 -0.259,0.037 -0.702,0.037 -0.962,0.037 -2.479,0 -4.07,-0.703 -4.625,-1.48 -0.555,-0.813 -0.852,-1.479 -0.852,-2.22 0,-0.703 0.148,-1.518 0.333,-2.554 l 2.332,-12.284 c -0.74,-0.148 -1.332,-0.666 -1.222,-1.259 0.111,-0.739 0.814,-1.332 1.776,-1.332 0.185,-0.925 0.259,-1.702 0.333,-2.441 0.111,-1.185 1.221,-2.221 2.813,-2.591 1.295,-0.259 2.664,0.444 2.405,1.406 -0.37,1.221 -0.593,2.109 -0.852,3.7 l 0.113,0 0,0 z"
             id="path27" />
          <path
             style="fill:#3c3c3b"
             inkscape:connector-curvature="0"
             d="m 368.737,-340.313 c 0.369,-1.998 0.48,-3.22 0.443,-4.07 -0.074,-0.925 0.556,-1.851 1.851,-2.035 0.37,-0.037 0.703,-0.074 0.962,-0.111 h -0.037 c 1.332,-0.259 2.59,0.481 2.517,1.369 -0.037,0.111 -0.037,0.481 -0.111,0.74 -0.037,0.185 -0.111,0.296 -0.148,0.481 0.593,-0.777 1.296,-1.518 2.146,-2.109 0.629,-0.407 1.406,-0.74 2.146,-0.999 1.369,-0.407 2.479,0.629 2.146,1.665 -0.333,0.962 -1.739,1.628 -3.145,1.961 h 0.037 c -1.406,0.37 -3.294,1.924 -4.293,5.587 -0.555,1.925 -1.406,6.771 -1.591,9.177 -0.111,1.11 -1.332,1.998 -2.775,1.962 H 368.7 c -1.296,0 -2.479,-0.852 -2.221,-1.851 0.186,-0.629 0.37,-1.295 0.444,-1.776 l 1.814,-9.991 z"
             id="path29" />
          <path
             style="fill:#3c3c3b"
             inkscape:connector-curvature="0"
             d="m 386.944,-328.62 c 1.332,0 2.442,-0.37 3.33,-0.74 0.926,-0.406 2.035,0.148 1.813,0.963 -0.259,0.813 -1.036,1.628 -2.368,1.998 -0.925,0.185 -2.072,0.37 -3.626,0.37 -6.438,-0.186 -8.03,-3.627 -8.104,-8.252 0,-3.959 1.998,-7.289 3.256,-8.807 2.553,-3.183 6.18,-4.219 8.844,-4.219 3.959,0 5.957,1.962 5.957,4.515 0,1.036 -0.518,2.479 -1.332,3.737 -0.888,1.332 -2.516,2.405 -3.812,3.034 -2.331,1.185 -4.81,1.332 -7.622,1.443 -0.037,0.147 -0.074,0.629 -0.074,1.332 10e-4,1.777 0.52,4.663 3.738,4.626 z m -3.514,-6.993 c 2.034,-0.296 4.181,-1.628 6.031,-3.367 0.851,-0.852 1.517,-2.146 1.517,-3.663 0,-1.592 -0.777,-2.331 -1.702,-2.331 -0.555,0 -1.813,0.259 -3.404,2.108 -1.147,1.369 -2.146,4.181 -2.442,7.253 z"
             id="path31" />
          <path
             style="fill:#3c3c3b"
             inkscape:connector-curvature="0"
             d="m 397.826,-339.721 c 0.259,-1.518 0.555,-3.367 0.555,-4.773 v -0.222 c -0.037,-0.852 0.481,-1.813 1.776,-1.961 0.37,-0.037 0.666,-0.074 1.036,-0.148 0.037,0 0.147,-0.037 0.186,-0.037 1.184,-0.146 2.441,0.629 2.331,1.519 -0.074,0.443 0.11,-0.333 -0.074,0.592 0.186,-0.222 0.444,-0.481 0.703,-0.703 1.479,-1.147 3.441,-1.851 5.587,-1.851 2.331,0 5.478,0.814 5.478,3.923 0,0.666 -0.111,1.479 -0.407,3.182 -0.147,0.777 -0.296,1.739 -0.443,2.591 -0.147,0.888 -0.333,1.702 -0.48,2.553 -0.296,1.592 -0.814,4.589 -0.926,6.438 -0.073,1.11 -1.368,1.925 -2.813,1.925 H 410 c -1.221,0.036 -2.331,-0.814 -2.072,-1.739 0.37,-1.185 0.777,-2.961 1.332,-6.513 l 0.444,-2.441 c 0.333,-1.813 0.555,-3.256 0.555,-4.329 0,-1.776 -0.555,-2.517 -2.183,-2.517 -1.406,0 -3.108,1.147 -4.183,2.479 -1.146,1.48 -1.591,4.219 -1.924,6.217 l -0.666,4.329 c -0.186,1.147 -0.26,1.961 -0.296,2.664 -0.074,1.073 -1.406,1.813 -2.813,1.813 H 397.9 c -1.259,0.037 -2.332,-0.852 -2.146,-1.702 0.37,-1.332 0.629,-2.701 0.889,-4.366 l 1.183,-6.923 z"
             id="path33" />
          <path
             style="fill:#3c3c3b"
             inkscape:connector-curvature="0"
             d="m 433.779,-346.641 c 1.332,-0.406 2.517,0.63 2.331,1.629 -0.26,1.221 -0.666,3.106 -1.296,6.512 l -0.665,3.627 c -0.519,3.034 -0.814,5.587 -0.814,6.66 0,0.925 -1.221,1.591 -2.479,1.628 -1.295,0.037 -2.404,-0.74 -2.33,-1.665 0.037,-0.629 0.146,-1.479 0.296,-2.257 -1.519,2.072 -3.479,4.329 -6.364,4.329 -3.071,0 -6.105,-1.998 -6.105,-6.217 0,-1.702 0.999,-8.437 6.401,-12.729 0.888,-0.666 3.034,-2.072 6.476,-2.072 1.738,0 2.887,0.37 3.959,0.777 l 0.59,-0.222 z m -2.812,2.406 c -0.666,-0.222 -1.479,-0.48 -2.368,-0.48 -5.624,0 -7.104,7.918 -7.104,10.952 0,2.517 0.703,4.33 2.554,4.33 1.073,0 2.442,-0.593 3.7,-2.442 0.999,-1.369 1.628,-3.516 2.257,-7.216 l 0.961,-5.144 z m -4.181,-4.44 c 1.036,0 2.442,-0.37 3.663,-1.073 1.775,-1.332 2.072,-1.629 2.257,-2.295 0.26,-0.999 -0.592,-1.738 -1.813,-1.738 -1.813,0 -2.33,0.776 -2.591,1.813 -0.185,0.777 -0.775,1.555 -1.702,2.221 -0.554,0.442 -0.628,1.072 0.186,1.072 z"
             id="path35" />
          <path
             style="fill:#3c3c3b"
             inkscape:connector-curvature="0"
             d="m 463.268,-335.429 c -0.035,0.333 -0.072,0.63 -0.146,0.963 -0.333,1.961 -0.74,4.329 -0.74,5.92 -0.037,0.999 -0.962,1.924 -2.368,1.961 -1.405,0 -2.7,-0.888 -2.553,-1.998 0.037,-0.37 0,-0.259 0.185,-1.295 -1.368,1.887 -3.033,3.7 -5.771,3.7 -3.33,0 -6.216,-2.109 -6.216,-6.327 0,-0.999 0.518,-6.143 3.848,-10.361 2.072,-2.516 5.365,-4.255 8.918,-4.255 0.852,0 1.517,0.111 2.072,0.222 0.333,-1.739 0.479,-2.775 0.407,-3.552 -0.037,-0.962 0.701,-1.961 2.033,-2.146 0.111,-0.037 0.37,-0.074 0.52,-0.111 1.443,-0.259 2.923,0.37 2.701,1.406 -0.148,0.407 -0.186,0.926 -0.296,1.555 -0.074,0.37 -0.148,0.776 -0.223,1.258 -0.036,0.259 -0.11,0.555 -0.147,0.852 -0.074,0.333 -0.148,0.703 -0.223,1.11 l -2.001,11.098 z m -12.47,1.702 c 0,2.554 0.89,4.403 2.479,4.403 1.035,0 2.59,-0.813 3.886,-3.404 0.962,-1.887 1.405,-4.144 2.849,-11.618 -0.703,-0.187 -1.295,-0.333 -1.961,-0.333 -5.847,0 -7.253,8.621 -7.253,10.952 z"
             id="path37" />
          <path
             style="fill:#3c3c3b"
             inkscape:connector-curvature="0"
             d="m 484.104,-345.308 c 1.925,1.924 1.997,4.07 1.997,5.105 0,5.772 -3.736,14.099 -12.21,14.099 -2.146,0 -4.256,-0.592 -5.698,-1.888 -0.889,-0.851 -2.294,-2.479 -2.294,-5.735 0,-5.957 3.959,-13.506 12.284,-13.506 2.628,10e-4 4.699,0.629 5.921,1.925 z m -4.219,1.554 c -0.443,-0.407 -1.185,-0.962 -2.258,-0.962 -5.291,0 -6.586,8.548 -6.586,11.434 0,3.479 1.48,4.699 3.183,4.699 5.847,0 6.66,-9.99 6.66,-11.767 0,-0.924 -0.037,-2.516 -0.999,-3.404 z"
             id="path39" />
          <path
             style="fill:#3c3c3b"
             inkscape:connector-curvature="0"
             d="m 488.93,-339.721 c 0.26,-1.518 0.556,-3.367 0.556,-4.773 v -0.222 c -0.037,-0.852 0.48,-1.813 1.775,-1.961 0.37,-0.037 0.666,-0.074 1.036,-0.148 0.037,0 0.148,-0.037 0.187,-0.037 1.184,-0.146 2.44,0.629 2.331,1.519 -0.074,0.443 0.109,-0.333 -0.074,0.592 0.185,-0.222 0.443,-0.481 0.703,-0.703 1.479,-1.147 3.44,-1.851 5.587,-1.851 2.331,0 5.477,0.814 5.477,3.923 0,0.666 -0.11,1.479 -0.407,3.182 -0.146,0.777 -0.296,1.739 -0.442,2.591 -0.148,0.888 -0.333,1.702 -0.481,2.553 -0.296,1.592 -0.813,4.589 -0.925,6.438 -0.074,1.11 -1.369,1.925 -2.813,1.925 h -0.332 c -1.222,0.036 -2.331,-0.814 -2.072,-1.739 0.37,-1.185 0.777,-2.961 1.332,-6.513 l 0.443,-2.441 c 0.334,-1.813 0.556,-3.256 0.556,-4.329 0,-1.776 -0.556,-2.517 -2.184,-2.517 -1.405,0 -3.107,1.147 -4.182,2.479 -1.147,1.48 -1.591,4.219 -1.924,6.217 l -0.666,4.329 c -0.187,1.147 -0.261,1.961 -0.296,2.664 -0.074,1.073 -1.406,1.813 -2.813,1.813 h -0.296 c -1.258,0.037 -2.331,-0.852 -2.146,-1.702 0.37,-1.332 0.629,-2.701 0.889,-4.366 l 1.181,-6.923 z"
             id="path41" />
          <path
             style="fill:#3c3c3b"
             inkscape:connector-curvature="0"
             d="m 525.088,-335.429 c -0.037,0.333 -0.074,0.63 -0.148,0.963 -0.332,1.961 -0.739,4.329 -0.739,5.92 -0.037,0.999 -0.962,1.924 -2.368,1.961 -1.406,0 -2.701,-0.888 -2.553,-1.998 0.037,-0.37 0,-0.259 0.185,-1.295 -1.369,1.887 -3.034,3.7 -5.771,3.7 -3.33,0 -6.216,-2.109 -6.216,-6.327 0,-0.999 0.518,-6.143 3.848,-10.361 2.072,-2.516 5.365,-4.255 8.918,-4.255 0.851,0 1.517,0.111 2.072,0.222 0.333,-1.739 0.479,-2.775 0.405,-3.552 -0.036,-0.962 0.703,-1.961 2.035,-2.146 0.111,-0.037 0.37,-0.074 0.52,-0.111 1.442,-0.259 2.923,0.37 2.7,1.406 -0.147,0.407 -0.185,0.926 -0.296,1.555 -0.073,0.37 -0.147,0.776 -0.223,1.258 -0.036,0.259 -0.11,0.555 -0.147,0.852 -0.073,0.333 -0.147,0.703 -0.222,1.11 l -2,11.098 z m -12.471,1.702 c 0,2.554 0.889,4.403 2.479,4.403 1.036,0 2.59,-0.813 3.887,-3.404 0.962,-1.887 1.404,-4.144 2.849,-11.618 -0.703,-0.187 -1.295,-0.333 -1.961,-0.333 -5.848,0 -7.254,8.621 -7.254,10.952 z"
             id="path43" />
          <path
             style="fill:#3c3c3b"
             inkscape:connector-curvature="0"
             d="m 536.76,-328.62 c 1.332,0 2.442,-0.37 3.33,-0.74 0.926,-0.406 2.035,0.148 1.813,0.963 -0.259,0.813 -1.036,1.628 -2.368,1.998 -0.925,0.185 -2.072,0.37 -3.626,0.37 -6.438,-0.186 -8.03,-3.627 -8.104,-8.252 0,-3.959 1.998,-7.289 3.256,-8.807 2.554,-3.183 6.181,-4.219 8.845,-4.219 3.959,0 5.957,1.962 5.957,4.515 0,1.036 -0.519,2.479 -1.332,3.737 -0.888,1.332 -2.517,2.405 -3.813,3.034 -2.331,1.185 -4.81,1.332 -7.622,1.443 -0.037,0.147 -0.074,0.629 -0.074,1.332 -0.001,1.777 0.519,4.663 3.738,4.626 z m -3.516,-6.993 c 2.035,-0.296 4.182,-1.628 6.032,-3.367 0.851,-0.852 1.517,-2.146 1.517,-3.663 0,-1.592 -0.777,-2.331 -1.702,-2.331 -0.555,0 -1.813,0.259 -3.403,2.108 -1.148,1.369 -2.147,4.181 -2.444,7.253 z"
             id="path45" />
          <path
             style="fill:#3c3c3b"
             inkscape:connector-curvature="0"
             d="m 572.317,-346.825 c 1.222,-0.518 2.627,0.185 2.331,1.221 -0.629,2.258 -1.369,5.218 -2.258,9.917 -1.258,6.92 -1.887,10.842 -2.22,15.504 -0.11,1.147 -1.518,2.035 -2.961,2.072 -1.258,0.037 -2.405,-0.925 -2.405,-1.813 0,-0.037 0.037,-0.074 0.037,-0.148 0.037,-0.147 0.148,-0.48 0.111,-0.407 l -0.037,0.037 c 0.148,-0.592 0.296,-1.147 0.444,-1.85 0.036,-0.148 0.073,-0.297 0.109,-0.481 0.297,-1.295 0.666,-3.33 1.036,-5.328 0.037,-0.333 0.111,-0.629 0.186,-0.962 -0.332,0.443 -0.739,0.925 -1.146,1.295 -0.48,0.407 -1.887,1.628 -4.699,1.628 -1.628,0 -3.107,-0.444 -4.145,-1.443 -1.998,-1.961 -2.035,-4.292 -2.035,-5.181 0,-1.887 0.703,-5.994 2.997,-9.361 0.813,-1.146 3.774,-5.254 9.731,-5.254 0.889,0 1.479,0.073 2.368,0.259 0.962,0.222 1.518,0.37 1.925,0.592 l 0.631,-0.297 z m -2.922,2.442 h 0.037 c -0.629,-0.223 -1.518,-0.481 -2.33,-0.481 -2.035,0 -3.517,0.889 -4.664,2.146 -1.85,1.961 -2.737,6.217 -2.737,8.511 0,2.072 0.297,4.699 2.737,4.699 0.594,0 1.813,-0.592 2.701,-1.48 1.702,-1.665 2.701,-5.624 3.184,-8.214 l 1.072,-5.181 z"
             id="path47" />
          <path
             style="fill:#3c3c3b"
             inkscape:connector-curvature="0"
             d="m 580.96,-335.392 c -0.407,1.888 -0.556,2.738 -0.556,3.553 0,1.369 0.48,2.516 1.925,2.516 0.629,0 2.553,-0.296 4.106,-2.773 h -0.037 c 0.776,-1.369 1.666,-4.812 2.184,-7.66 0.407,-2.146 0.592,-3.589 0.629,-4.514 0.037,-1.073 0.926,-2.072 2.294,-2.332 0.037,0 0.187,0 0.26,-0.037 l -0.073,0.074 c 0.185,-0.11 0.518,-0.185 0.703,-0.185 1.146,-0.148 2.404,0.666 2.257,1.479 -0.519,1.851 -1.073,4.256 -1.665,7.66 -0.926,5.106 -1.258,7.585 -1.258,8.954 v 0.296 c 0.037,1 -1.147,1.813 -2.479,1.813 -1.406,0 -2.627,-0.925 -2.553,-1.998 v -0.518 c -0.444,0.629 -0.927,1.146 -1.592,1.628 -1.665,1.109 -3.959,1.295 -4.552,1.295 -2.813,0 -5.328,-1.332 -5.328,-4.033 0,-0.519 0.073,-1.036 0.297,-2.405 l 1.85,-9.806 c 0.148,-0.703 0.223,-1.295 0.259,-1.739 0.074,-0.962 0.63,-2.072 2.072,-2.331 h -0.073 c 0.073,-0.037 0.223,-0.037 0.369,-0.037 0.037,0 0.148,-0.037 0.186,-0.037 h -0.073 c 0.11,-0.037 0.296,-0.074 0.48,-0.074 1.259,-0.147 2.554,0.74 2.368,1.702 -0.37,1.48 -0.556,2.184 -0.814,3.441 -0.036,0.186 -0.11,0.444 -0.146,0.666 l -1.04,5.402 z"
             id="path49" />
          <path
             style="fill:#3c3c3b"
             inkscape:connector-curvature="0"
             d="m 601.442,-335.65 c -0.666,3.7 -0.962,5.884 -1.073,7.142 -0.074,1.073 -1.406,1.813 -2.813,1.813 h -0.296 c -1.184,0.036 -2.108,-1 -1.998,-1.925 0,-0.037 0.037,-0.11 0.037,-0.185 0.186,-0.777 0.444,-1.813 0.703,-3.33 l 0.629,-3.627 c 0.889,-4.884 1.221,-7.289 1.186,-8.621 -0.037,-0.889 0.369,-1.961 1.774,-2.035 0.52,-0.074 0.89,-0.148 1.295,-0.223 1.259,-0.259 2.332,0.667 2.259,1.629 -0.037,0.146 -0.074,0.406 -0.074,0.592 -0.148,0.666 -0.333,1.554 -0.555,2.775 l -1.074,5.995 z m 2.96,-16.245 c 0,1.221 -1.11,3.108 -3.256,3.108 -1.26,0 -2.555,-0.592 -2.555,-1.961 0,-1.147 1.036,-3.034 3.33,-3.034 1.298,10e-4 2.481,0.63 2.481,1.887 z"
             id="path51" />
          <path
             style="fill:#3c3c3b"
             inkscape:connector-curvature="0"
             d="m 612.86,-328.62 c 1.331,0 2.441,-0.37 3.329,-0.74 0.927,-0.406 2.035,0.148 1.813,0.963 -0.259,0.813 -1.036,1.628 -2.368,1.998 -0.925,0.185 -2.072,0.37 -3.626,0.37 -6.438,-0.186 -8.03,-3.627 -8.104,-8.252 0,-3.959 1.998,-7.289 3.256,-8.807 2.553,-3.183 6.18,-4.219 8.844,-4.219 3.959,0 5.957,1.962 5.957,4.515 0,1.036 -0.518,2.479 -1.332,3.737 -0.888,1.332 -2.516,2.405 -3.812,3.034 -2.331,1.185 -4.811,1.332 -7.622,1.443 -0.037,0.147 -0.074,0.629 -0.074,1.332 0.002,1.777 0.522,4.663 3.739,4.626 z m -3.514,-6.993 c 2.034,-0.296 4.182,-1.628 6.031,-3.367 0.852,-0.852 1.518,-2.146 1.518,-3.663 0,-1.592 -0.777,-2.331 -1.702,-2.331 -0.556,0 -1.813,0.259 -3.404,2.108 -1.148,1.369 -2.146,4.181 -2.443,7.253 z"
             id="path53" />
          <path
             style="fill:#3c3c3b"
             inkscape:connector-curvature="0"
             d="m 623.816,-340.313 c 0.369,-1.998 0.479,-3.22 0.442,-4.07 -0.073,-0.925 0.556,-1.851 1.852,-2.035 0.37,-0.037 0.702,-0.074 0.962,-0.111 h -0.037 c 1.332,-0.259 2.59,0.481 2.517,1.369 -0.037,0.111 -0.037,0.481 -0.11,0.74 -0.037,0.185 -0.111,0.296 -0.148,0.481 0.593,-0.777 1.296,-1.518 2.146,-2.109 0.629,-0.407 1.405,-0.74 2.146,-0.999 1.369,-0.407 2.479,0.629 2.146,1.665 -0.332,0.962 -1.738,1.628 -3.145,1.961 h 0.037 c -1.406,0.37 -3.294,1.924 -4.293,5.587 -0.555,1.925 -1.406,6.771 -1.591,9.177 -0.111,1.11 -1.332,1.998 -2.775,1.962 h -0.185 c -1.295,0 -2.479,-0.852 -2.222,-1.851 0.187,-0.629 0.37,-1.295 0.444,-1.776 l 1.814,-9.991 z"
             id="path55" />
          <path
             style="fill:#3c3c3b"
             inkscape:connector-curvature="0"
             d="m 649.912,-346.641 c 1.332,-0.406 2.517,0.63 2.331,1.629 -0.259,1.221 -0.666,3.106 -1.295,6.512 l -0.666,3.627 c -0.519,3.034 -0.814,5.587 -0.814,6.66 0,0.925 -1.221,1.591 -2.479,1.628 -1.295,0.037 -2.405,-0.74 -2.331,-1.665 0.037,-0.629 0.146,-1.479 0.296,-2.257 -1.519,2.072 -3.479,4.329 -6.364,4.329 -3.07,0 -6.104,-1.998 -6.104,-6.217 0,-1.702 0.999,-8.437 6.4,-12.729 0.888,-0.666 3.034,-2.072 6.477,-2.072 1.737,0 2.886,0.37 3.959,0.777 l 0.59,-0.222 z m -2.812,2.406 c -0.666,-0.222 -1.479,-0.48 -2.367,-0.48 -5.625,0 -7.104,7.918 -7.104,10.952 0,2.517 0.703,4.33 2.554,4.33 1.073,0 2.442,-0.593 3.7,-2.442 0.999,-1.369 1.628,-3.516 2.257,-7.216 l 0.96,-5.144 z"
             id="path57" />
          <path
             style="fill:#3c3c3b"
             inkscape:connector-curvature="0"
             d="m 656.656,-335.909 c -1.147,-0.666 -3.33,-1.998 -3.33,-4.366 0,-1.998 1.369,-3.849 3.182,-5.292 1.889,-1.406 4.773,-1.665 6.291,-1.665 1.109,0 1.887,0.074 2.553,0.259 h -0.037 c 1.223,0.26 1.852,1.333 1.48,2.184 -0.259,0.592 -0.999,0.888 -1.813,0.888 -0.48,0 -0.926,-0.073 -1.259,-0.259 h 0.037 c -0.556,-0.259 -1.185,-0.444 -1.813,-0.444 -2.368,0 -3.626,1.776 -3.626,3.183 0,1.739 1.184,2.405 2.404,3.108 l 1.851,1.146 c 1.185,0.703 2.997,1.813 2.997,3.997 0,1.591 -0.813,3.7 -3.146,5.402 -2.184,1.591 -4.922,1.702 -6.624,1.702 -0.999,0 -2.035,-0.111 -2.737,-0.26 -1.296,-0.333 -2.184,-1.295 -1.962,-2.108 0.481,-1.222 1.962,-1.665 3.108,-1.11 h -0.037 c 0.703,0.333 1.554,0.592 2.851,0.592 2.44,0 3.736,-1.554 3.736,-3.034 0,-1.443 -0.889,-2.035 -1.813,-2.59 l -2.293,-1.333 z"
             id="path59" />
        </g>
      </g>
      <path
         style="fill:#217abf"
         inkscape:connector-curvature="0"
         d="m 535.258,-478.93 c -1.452,-4.34 -3.979,-7.928 -7.853,-10.4 -3.696,-2.359 -7.785,-3.629 -12.21,-3.751 -7.189,-0.19 -13.133,2.362 -17.508,8.138 -3.869,5.102 -5.064,10.996 -4.607,17.278 0.414,5.798 1.9,11.353 3.916,16.78 2.623,7.061 5.932,13.771 10.094,20.067 0.881,1.332 2.63,1.61 3.922,0.498 8.03,-6.912 14.726,-14.956 19.981,-24.172 2.501,-4.381 4.384,-9.009 5.175,-14.032 0.463,-3.534 0.223,-7.013 -0.91,-10.406 z m -10.189,9.403 c -0.744,5.437 -5.759,9.244 -11.198,8.499 -5.442,-0.746 -9.245,-5.76 -8.498,-11.197 0.742,-5.442 5.756,-9.246 11.195,-8.501 5.442,0.746 9.245,5.757 8.501,11.199 z"
         id="path61" />
    </g>
  </g>
</svg>
